<svg id="Group_1" data-name="Group 1" xmlns="http://www.w3.org/2000/svg" width="55.556" height="55.556" viewBox="0 0 55.556 55.556">
  <path id="Path_1" data-name="Path 1" d="M47.42,19.642V8.136H35.914L27.778,0,19.642,8.136H8.136V19.642L0,27.778l8.136,8.136V47.42H19.642l8.136,8.136,8.136-8.136H47.42V35.914l8.136-8.136ZM42.972,34.071v8.9h-8.9l-6.293,6.293-6.294-6.293h-8.9v-8.9L6.29,27.778l6.294-6.294v-8.9h8.9L27.778,6.29l6.293,6.294h8.9v8.9l6.293,6.294Z" fill="#008177"/>
  <path id="Path_2" data-name="Path 2" d="M36.82,24.032v-5.3h-5.3l-3.745-3.745-3.745,3.745h-5.3v5.3l-3.745,3.745,3.745,3.745v5.3h5.3l3.745,3.745,3.745-3.745h5.3v-5.3l3.745-3.745Z" fill="#008177"/>
</svg>
