<svg xmlns="http://www.w3.org/2000/svg" width="23.357" height="21.678" viewBox="0 0 23.357 21.678">
  <g id="Group_412" data-name="Group 412" transform="translate(-332.729 -209.85)">
    <g id="Group_188" data-name="Group 188" opacity="0.3">
      <path id="Path_255" data-name="Path 255" d="M356.086,221.689l-8.612-1.267,3.6-4.648-4.46,3.568-1.208-7.491-1.208,7.491-4.46-3.568,3.6,4.648-8.612,1.267,8.612,1.267-3.6,4.648,4.46-3.568,1.208,7.491,1.208-7.491,4.46,3.568-3.6-4.648Z"/>
    </g>
    <g id="Group_295" data-name="Group 295">
      <path id="Path_348" data-name="Path 348" d="M354.086,219.689l-8.612-1.267,3.6-4.648-4.46,3.568-1.208-7.491-1.208,7.491-4.46-3.568,3.6,4.648-8.612,1.267,8.612,1.267-3.6,4.648,4.46-3.568,1.208,7.491,1.208-7.491,4.46,3.568-3.6-4.648Z" fill="#ffdd9a"/>
    </g>
    <g id="Group_402" data-name="Group 402">
      <path id="Path_441" data-name="Path 441" d="M354.086,220.189l-8.612-1.267,3.6-4.648-4.46,3.568-1.208-7.491-1.208,7.491-4.46-3.568,3.6,4.648-8.612,1.267,8.612,1.267-3.6,4.648,4.46-3.568,1.208,7.491,1.208-7.491,4.46,3.568-3.6-4.648Z" fill="#ebc883"/>
    </g>
  </g>
</svg>
