<svg xmlns="http://www.w3.org/2000/svg" width="50.135" height="191.362" viewBox="0 0 50.135 191.362">
  <g id="Group_411" data-name="Group 411" transform="translate(-148.398 -152.61)">
    <g id="Group_444" data-name="Group 444" opacity="0.3">
      <g id="Group_156" data-name="Group 156">
        <g id="Group_155" data-name="Group 155">
          <g id="Group_147" data-name="Group 147">
            <path id="Path_224" data-name="Path 224" d="M174.449,259.6h20.664c.121-2.431-1.58-6.2-4.133-6.2H157.918c-2.553,0-4.255,3.768-4.133,6.2Zm16.444-4.886a1.787,1.787,0,1,1-1.787,1.787A1.787,1.787,0,0,1,190.893,254.715Zm-4.7,0a1.787,1.787,0,1,1-1.787,1.787A1.787,1.787,0,0,1,186.2,254.715Zm-4.7,0a1.787,1.787,0,1,1-1.787,1.787A1.787,1.787,0,0,1,181.5,254.715Zm-4.7,0a1.787,1.787,0,1,1-1.787,1.787A1.787,1.787,0,0,1,176.8,254.715Zm-4.7,0a1.787,1.787,0,1,1-1.787,1.787A1.787,1.787,0,0,1,172.1,254.715Zm-4.7,0a1.787,1.787,0,1,1-1.786,1.787A1.787,1.787,0,0,1,167.4,254.715Zm-4.7,0a1.787,1.787,0,1,1-1.787,1.787A1.787,1.787,0,0,1,162.7,254.715Zm-4.7,0a1.787,1.787,0,1,1-1.787,1.787A1.787,1.787,0,0,1,158.005,254.715Z"/>
          </g>
          <g id="Group_148" data-name="Group 148">
            <path id="Path_225" data-name="Path 225" d="M174.388,267.988h21.15l2.8-3.646-2.8-3.647H153.359l-2.795,3.647,2.795,3.646ZM153.9,266.895l-.409-.534,1.5-1.5,2.037,2.037Zm5.543,0,2.037-2.037,2.036,2.037Zm6.485,0,2.037-2.037L170,266.895Zm6.485,0,2.037-2.037,2.037,2.037Zm6.485,0,2.037-2.037,2.037,2.037Zm6.485,0,2.037-2.037,2.037,2.037Zm9.616,0h-3.131l2.037-2.037,1.5,1.5.106-.138Zm.543-4.4,1.414,1.845-1.1,1.435-1.435-1.435,1.435-1.435Zm-.543-.708.409.534-1.5,1.5-2.037-2.037Zm-4.162,0,2.553,2.553-2.553,2.553h-.349l-2.552-2.553,2.553-2.553Zm-1.38,0-2.037,2.037-2.037-2.037Zm-5.1,0,2.552,2.553-2.552,2.553H184l-2.552-2.553L184,261.789Zm-1.38,0-2.037,2.037-2.037-2.037Zm-5.1,0,2.552,2.553-2.552,2.553h-.349l-2.552-2.553,2.552-2.553Zm-1.38,0-2.037,2.037-2.037-2.037Zm-5.1,0,2.552,2.553-2.552,2.553h-.349l-2.553-2.553,2.553-2.553Zm-1.38,0-2.037,2.037-2.037-2.037Zm-5.106,0,2.553,2.553-2.552,2.553h-.349l-2.553-2.553,2.553-2.553Zm-1.379,0-2.037,2.037-2.037-2.037Zm-5.106,0,2.553,2.553-2.553,2.553h-.348l-2.553-2.553,2.553-2.553Zm-4.511,0h3.131l-2.037,2.037-1.5-1.5-.323.422Zm-1.957,2.553,1.1-1.435,1.436,1.435-1.436,1.435.112.145Z"/>
          </g>
          <g id="Group_149" data-name="Group 149">
            <path id="Path_226" data-name="Path 226" d="M166.477,302.2H182.9V268.839H166.477Zm1.986-15.437c0-8.688,6.223-12.227,6.223-12.227s6.223,3.539,6.223,12.227v13.615H168.463Z"/>
          </g>
          <g id="Group_150" data-name="Group 150">
            <path id="Path_227" data-name="Path 227" d="M165.061,302.2V268.839H153.79V302.2Zm-9.932-27.664s7.851,3.539,7.851,12.227v13.615h-7.851Z"/>
          </g>
          <g id="Group_151" data-name="Group 151">
            <path id="Path_228" data-name="Path 228" d="M195.407,302.2V268.839H184.136V302.2Zm-9.19-15.437c0-8.688,7.852-12.227,7.852-12.227v25.842h-7.852Z"/>
          </g>
          <g id="Group_152" data-name="Group 152">
            <path id="Path_229" data-name="Path 229" d="M163.752,252.308c0-7.584,6.189-13.827,9.151-16.38.064.05.126.1.194.144-2.564,2.792-7.886,9.407-7.886,16.236h18.476c0-6.829-5.323-13.444-7.887-16.236.069-.044.131-.094.195-.144,2.961,2.553,9.151,8.8,9.151,16.38h4.74s1.333-9.851-13.495-16.769a2.313,2.313,0,0,0,.541-1.933,6.7,6.7,0,1,0-4.966,0,2.313,2.313,0,0,0,.541,1.933c-14.828,6.918-13.5,16.769-13.5,16.769Zm5.456-24.918a5.241,5.241,0,1,1,7.109,4.89,2.488,2.488,0,0,0-3.737,0A5.246,5.246,0,0,1,169.208,227.39Z"/>
          </g>
          <g id="Group_153" data-name="Group 153">
            <path id="Path_230" data-name="Path 230" d="M195.434,303.41H153.5a3.1,3.1,0,1,0,0,6.2h41.936a3.1,3.1,0,0,0,0-6.2Z"/>
          </g>
          <g id="Group_154" data-name="Group 154">
            <path id="Path_231" data-name="Path 231" d="M176.376,328.671a2.1,2.1,0,0,0-.205-.236c2.167-2.561,5.943-8.337,5.943-17.512H167.258c0,9.175,3.776,14.951,5.943,17.512a2.1,2.1,0,0,0-.205.236c-2.532-2.285-7.019-7.743-7.019-17.748h-10.2s2.733,15.826,16.8,18.718a2.186,2.186,0,0,0-.034.336,2.143,2.143,0,0,0,1.33,1.982l-1.749,4.08,2.564,7.933,2.564-7.933-1.749-4.08a2.143,2.143,0,0,0,1.33-1.982,2.186,2.186,0,0,0-.034-.336c14.063-2.892,16.8-18.718,16.8-18.718H183.4C183.4,320.928,178.908,326.386,176.376,328.671Z"/>
          </g>
        </g>
      </g>
      <g id="Group_180" data-name="Group 180" transform="translate(174.07 154.215)">
        <rect id="Rectangle_3" data-name="Rectangle 3" width="1.006" height="66.476"/>
      </g>
    </g>
    <g id="Group_4444" data-name="Group 4444">
      <g id="Group_444-2" data-name="Group 444">
        <g id="Group_263" data-name="Group 263">
          <g id="Group_262" data-name="Group 262">
            <g id="Group_254" data-name="Group 254">
              <path id="Path_317" data-name="Path 317" d="M172.449,257.6h20.664c.121-2.431-1.58-6.2-4.133-6.2H155.918c-2.553,0-4.255,3.768-4.133,6.2Zm16.444-4.886a1.787,1.787,0,1,1-1.787,1.787A1.787,1.787,0,0,1,188.893,252.715Zm-4.7,0a1.787,1.787,0,1,1-1.787,1.787A1.787,1.787,0,0,1,184.2,252.715Zm-4.7,0a1.787,1.787,0,1,1-1.787,1.787A1.787,1.787,0,0,1,179.5,252.715Zm-4.7,0a1.787,1.787,0,1,1-1.787,1.787A1.787,1.787,0,0,1,174.8,252.715Zm-4.7,0a1.787,1.787,0,1,1-1.787,1.787A1.787,1.787,0,0,1,170.1,252.715Zm-4.7,0a1.787,1.787,0,1,1-1.786,1.787A1.787,1.787,0,0,1,165.4,252.715Zm-4.7,0a1.787,1.787,0,1,1-1.787,1.787A1.787,1.787,0,0,1,160.7,252.715Zm-4.7,0a1.787,1.787,0,1,1-1.787,1.787A1.787,1.787,0,0,1,156.005,252.715Z" fill="#ffdd9a"/>
            </g>
            <g id="Group_255" data-name="Group 255">
              <path id="Path_318" data-name="Path 318" d="M172.388,265.988h21.15l2.8-3.646-2.8-3.647H151.359l-2.795,3.647,2.795,3.646ZM151.9,264.895l-.409-.534,1.5-1.5,2.037,2.037Zm5.543,0,2.037-2.037,2.036,2.037Zm6.485,0,2.037-2.037L168,264.895Zm6.485,0,2.037-2.037,2.037,2.037Zm6.485,0,2.037-2.037,2.037,2.037Zm6.485,0,2.037-2.037,2.037,2.037Zm9.616,0h-3.131l2.037-2.037,1.5,1.5.106-.138Zm.543-4.4,1.414,1.845-1.1,1.435-1.435-1.435,1.435-1.435Zm-.543-.708.409.534-1.5,1.5-2.037-2.037Zm-4.162,0,2.553,2.553-2.553,2.553h-.349l-2.552-2.553,2.553-2.553Zm-1.38,0-2.037,2.037-2.037-2.037Zm-5.1,0,2.552,2.553-2.552,2.553H182l-2.552-2.553L182,259.789Zm-1.38,0-2.037,2.037-2.037-2.037Zm-5.1,0,2.552,2.553-2.552,2.553h-.349l-2.552-2.553,2.552-2.553Zm-1.38,0-2.037,2.037-2.037-2.037Zm-5.1,0,2.552,2.553-2.552,2.553h-.349l-2.553-2.553,2.553-2.553Zm-1.38,0-2.037,2.037-2.037-2.037Zm-5.106,0,2.553,2.553-2.552,2.553h-.349l-2.553-2.553,2.553-2.553Zm-1.379,0-2.037,2.037-2.037-2.037Zm-5.106,0,2.553,2.553-2.553,2.553h-.348l-2.553-2.553,2.553-2.553Zm-4.511,0h3.131l-2.037,2.037-1.5-1.5-.323.422Zm-1.957,2.553,1.1-1.435,1.436,1.435-1.436,1.435.112.145Z" fill="#ffdd9a"/>
            </g>
            <g id="Group_256" data-name="Group 256">
              <path id="Path_319" data-name="Path 319" d="M164.477,300.2H180.9V266.839H164.477Zm1.986-15.437c0-8.688,6.223-12.227,6.223-12.227s6.223,3.539,6.223,12.227v13.615H166.463Z" fill="#ffdd9a"/>
            </g>
            <g id="Group_257" data-name="Group 257">
              <path id="Path_320" data-name="Path 320" d="M163.061,300.2V266.839H151.79V300.2Zm-9.932-27.664s7.851,3.539,7.851,12.227v13.615h-7.851Z" fill="#ffdd9a"/>
            </g>
            <g id="Group_258" data-name="Group 258">
              <path id="Path_321" data-name="Path 321" d="M193.407,300.2V266.839H182.136V300.2Zm-9.19-15.437c0-8.688,7.852-12.227,7.852-12.227v25.842h-7.852Z" fill="#ffdd9a"/>
            </g>
            <g id="Group_259" data-name="Group 259">
              <path id="Path_322" data-name="Path 322" d="M161.752,250.308c0-7.584,6.189-13.827,9.151-16.38.064.05.126.1.194.144-2.564,2.792-7.886,9.407-7.886,16.236h18.476c0-6.829-5.323-13.444-7.887-16.236.069-.044.131-.094.195-.144,2.961,2.553,9.151,8.8,9.151,16.38h4.74s1.333-9.851-13.495-16.769a2.313,2.313,0,0,0,.541-1.933,6.7,6.7,0,1,0-4.966,0,2.313,2.313,0,0,0,.541,1.933c-14.828,6.918-13.5,16.769-13.5,16.769Zm5.456-24.918a5.241,5.241,0,1,1,7.109,4.89,2.488,2.488,0,0,0-3.737,0A5.246,5.246,0,0,1,167.208,225.39Z" fill="#ffdd9a"/>
            </g>
            <g id="Group_260" data-name="Group 260">
              <path id="Path_323" data-name="Path 323" d="M193.434,301.41H151.5a3.1,3.1,0,1,0,0,6.2h41.936a3.1,3.1,0,0,0,0-6.2Z" fill="#ffdd9a"/>
            </g>
            <g id="Group_261" data-name="Group 261">
              <path id="Path_324" data-name="Path 324" d="M174.376,326.671a2.1,2.1,0,0,0-.205-.236c2.167-2.561,5.943-8.337,5.943-17.512H165.258c0,9.175,3.776,14.951,5.943,17.512a2.1,2.1,0,0,0-.205.236c-2.532-2.285-7.019-7.743-7.019-17.748h-10.2s2.733,15.826,16.8,18.718a2.186,2.186,0,0,0-.034.336,2.143,2.143,0,0,0,1.33,1.982l-1.749,4.08,2.564,7.933,2.564-7.933-1.749-4.08a2.143,2.143,0,0,0,1.33-1.982,2.186,2.186,0,0,0-.034-.336c14.063-2.892,16.8-18.718,16.8-18.718H181.4C181.4,318.928,176.908,324.386,174.376,326.671Z" fill="#ffdd9a"/>
            </g>
          </g>
        </g>
        <g id="Group_287" data-name="Group 287" transform="translate(172.465 152.61)">
          <rect id="Rectangle_6" data-name="Rectangle 6" width="1.006" height="66.476" fill="#ffdd9a"/>
        </g>
      </g>
      <g id="Group_444-3" data-name="Group 444">
        <g id="Group_370" data-name="Group 370">
          <g id="Group_369" data-name="Group 369">
            <g id="Group_361" data-name="Group 361">
              <path id="Path_410" data-name="Path 410" d="M172.449,258.1h20.664c.121-2.431-1.58-6.2-4.133-6.2H155.918c-2.553,0-4.255,3.768-4.133,6.2Zm16.444-4.886A1.787,1.787,0,1,1,187.106,255,1.787,1.787,0,0,1,188.893,253.215Zm-4.7,0A1.787,1.787,0,1,1,182.408,255,1.787,1.787,0,0,1,184.2,253.215Zm-4.7,0A1.787,1.787,0,1,1,177.709,255,1.787,1.787,0,0,1,179.5,253.215Zm-4.7,0A1.787,1.787,0,1,1,173.011,255,1.787,1.787,0,0,1,174.8,253.215Zm-4.7,0A1.787,1.787,0,1,1,168.313,255,1.787,1.787,0,0,1,170.1,253.215Zm-4.7,0A1.787,1.787,0,1,1,163.615,255,1.787,1.787,0,0,1,165.4,253.215Zm-4.7,0A1.787,1.787,0,1,1,158.916,255,1.787,1.787,0,0,1,160.7,253.215Zm-4.7,0A1.787,1.787,0,1,1,154.218,255,1.787,1.787,0,0,1,156.005,253.215Z" fill="#ebc883"/>
            </g>
            <g id="Group_362" data-name="Group 362">
              <path id="Path_411" data-name="Path 411" d="M172.388,266.488h21.15l2.8-3.646-2.8-3.647H151.359l-2.795,3.647,2.795,3.646ZM151.9,265.395l-.409-.534,1.5-1.5,2.037,2.037Zm5.543,0,2.037-2.037,2.036,2.037Zm6.485,0,2.037-2.037L168,265.395Zm6.485,0,2.037-2.037,2.037,2.037Zm6.485,0,2.037-2.037,2.037,2.037Zm6.485,0,2.037-2.037,2.037,2.037Zm9.616,0h-3.131l2.037-2.037,1.5,1.5.106-.138Zm.543-4.4,1.414,1.845-1.1,1.435-1.435-1.435,1.435-1.435Zm-.543-.708.409.534-1.5,1.5-2.037-2.037Zm-4.162,0,2.553,2.553-2.553,2.553h-.349l-2.552-2.553,2.553-2.553Zm-1.38,0-2.037,2.037-2.037-2.037Zm-5.1,0,2.552,2.553-2.552,2.553H182l-2.552-2.553L182,260.289Zm-1.38,0-2.037,2.037-2.037-2.037Zm-5.1,0,2.552,2.553-2.552,2.553h-.349l-2.552-2.553,2.552-2.553Zm-1.38,0-2.037,2.037-2.037-2.037Zm-5.1,0,2.552,2.553-2.552,2.553h-.349l-2.553-2.553,2.553-2.553Zm-1.38,0-2.037,2.037-2.037-2.037Zm-5.106,0,2.553,2.553-2.552,2.553h-.349l-2.553-2.553,2.553-2.553Zm-1.379,0-2.037,2.037-2.037-2.037Zm-5.106,0,2.553,2.553-2.553,2.553h-.348l-2.553-2.553,2.553-2.553Zm-4.511,0h3.131l-2.037,2.037-1.5-1.5-.323.422Zm-1.957,2.553,1.1-1.435,1.436,1.435-1.436,1.435.112.145Z" fill="#ebc883"/>
            </g>
            <g id="Group_363" data-name="Group 363">
              <path id="Path_412" data-name="Path 412" d="M164.477,300.7H180.9V267.339H164.477Zm1.986-15.437c0-8.688,6.223-12.227,6.223-12.227s6.223,3.539,6.223,12.227v13.615H166.463Z" fill="#ebc883"/>
            </g>
            <g id="Group_364" data-name="Group 364">
              <path id="Path_413" data-name="Path 413" d="M163.061,300.7V267.339H151.79V300.7Zm-9.932-27.664s7.851,3.539,7.851,12.227v13.615h-7.851Z" fill="#ebc883"/>
            </g>
            <g id="Group_365" data-name="Group 365">
              <path id="Path_414" data-name="Path 414" d="M193.407,300.7V267.339H182.136V300.7Zm-9.19-15.437c0-8.688,7.852-12.227,7.852-12.227v25.842h-7.852Z" fill="#ebc883"/>
            </g>
            <g id="Group_366" data-name="Group 366">
              <path id="Path_415" data-name="Path 415" d="M161.752,250.808c0-7.584,6.189-13.827,9.151-16.38.064.05.126.1.194.144-2.564,2.792-7.886,9.407-7.886,16.236h18.476c0-6.829-5.323-13.444-7.887-16.236.069-.044.131-.094.195-.144,2.961,2.553,9.151,8.8,9.151,16.38h4.74s1.333-9.851-13.495-16.769a2.313,2.313,0,0,0,.541-1.933,6.7,6.7,0,1,0-4.966,0,2.313,2.313,0,0,0,.541,1.933c-14.828,6.918-13.5,16.769-13.5,16.769Zm5.456-24.918a5.241,5.241,0,1,1,7.109,4.89,2.488,2.488,0,0,0-3.737,0A5.246,5.246,0,0,1,167.208,225.89Z" fill="#ebc883"/>
            </g>
            <g id="Group_367" data-name="Group 367">
              <path id="Path_416" data-name="Path 416" d="M193.434,301.91H151.5a3.1,3.1,0,1,0,0,6.2h41.936a3.1,3.1,0,0,0,0-6.2Z" fill="#ebc883"/>
            </g>
            <g id="Group_368" data-name="Group 368">
              <path id="Path_417" data-name="Path 417" d="M174.376,327.171a2.1,2.1,0,0,0-.205-.236c2.167-2.561,5.943-8.337,5.943-17.512H165.258c0,9.175,3.776,14.951,5.943,17.512a2.1,2.1,0,0,0-.205.236c-2.532-2.285-7.019-7.743-7.019-17.748h-10.2s2.733,15.826,16.8,18.718a2.186,2.186,0,0,0-.034.336,2.143,2.143,0,0,0,1.33,1.982l-1.749,4.08,2.564,7.933,2.564-7.933-1.749-4.08a2.143,2.143,0,0,0,1.33-1.982,2.186,2.186,0,0,0-.034-.336c14.063-2.892,16.8-18.718,16.8-18.718H181.4C181.4,319.428,176.908,324.886,174.376,327.171Z" fill="#ebc883"/>
            </g>
          </g>
        </g>
        <g id="Group_394" data-name="Group 394" transform="translate(172.465 153.011)">
          <rect id="Rectangle_9" data-name="Rectangle 9" width="1.006" height="66.476" fill="#ebc883"/>
        </g>
      </g>
    </g>
  </g>
</svg>
